<?xml version="1.0" encoding="UTF-8"?>
<svg xmlns="http://www.w3.org/2000/svg" id="outline" viewBox="0 0 512 512" width="512" height="512"><path d="M288,488V464a8.00008,8.00008,0,0,0-8-8H264V410.42188l12.28613-18.4292A27.98608,27.98608,0,0,0,301.293,352H304a8.00008,8.00008,0,0,0,8-8V275.314l21.65723-21.65722-11.31446-11.31348L300.686,264H211.314l-21.65673-21.65674-11.31446,11.31348L200,275.314V336H168V272a8.00008,8.00008,0,0,0-8-8H64a8.00008,8.00008,0,0,0-8,8v64H16v16H276a12,12,0,0,1,0,24H16v16h3.71875L32,410.42188V456H16v16H272v8H16v16H280A8.00008,8.00008,0,0,0,288,488ZM104,280h16v11.05566l-4.42188-2.21093a8.00257,8.00257,0,0,0-7.15624,0L104,291.05566ZM72,336V280H88v24a8,8,0,0,0,11.57812,7.15527L112,304.94434l12.42188,6.21093A8,8,0,0,0,136,304V280h16v56Zm144,0V280h80v56Zm20.28125,64-5.33325-8h26.10425l-5.3335,8Zm-48.5625,0h-15.4375l-5.33325-8h26.104Zm-64,0h-15.4375l-5.33325-8h26.104ZM72,410.42188l12-18,12,18V456H72ZM112,416h8v40h-8Zm24-5.57812,12-18,12,18V456H136ZM176,416h8v40h-8Zm24-5.57812,12-18,12,18V456H200ZM240,416h8v40h-8ZM65.052,392l-5.33325,8H44.28125L38.948,392ZM48,416h8v40H48Z"/><path d="M208,136v40a8.00008,8.00008,0,0,0,8,8h16v4.68652l-5.65723,5.65674A8.00035,8.00035,0,0,0,224,200v40a8.00008,8.00008,0,0,0,8,8h48a8.00008,8.00008,0,0,0,8-8V200a8.00035,8.00035,0,0,0-2.34277-5.65674L280,188.68652V184h16a8.00008,8.00008,0,0,0,8-8V136a7.99943,7.99943,0,0,0-3.5625-6.65625l-20.70117-13.80054a23.95005,23.95005,0,0,0-1.69873-13.03869l45.4292-38.9397a23.8284,23.8284,0,0,0,9.0664,0l45.4292,38.9397a23.96251,23.96251,0,0,0,.38281,19.83618l-8.00244,8.00256A8.00035,8.00035,0,0,0,368,136V416H344a7.999,7.999,0,0,0-7.49023,5.19092l-24,64A7.99991,7.99991,0,0,0,320,496H480a8.00008,8.00008,0,0,0,8-8V248a8.01684,8.01684,0,0,0-.21-1.79761l.00488-.00122-24-104a7.99969,7.99969,0,0,0-3.67871-5.061l-36.35254-21.8114A23.90273,23.90273,0,0,0,416,94.13074V80a7.99987,7.99987,0,0,0-2.79395-6.07422l-56-48A7.99748,7.99748,0,0,0,352,24h-6.13086a23.95664,23.95664,0,0,0-35.73828,0H304a7.99748,7.99748,0,0,0-5.20605,1.92578l-56,48A7.99987,7.99987,0,0,0,240,80V94.13074a23.95739,23.95739,0,0,0-7.73657,21.41247L211.5625,129.34375A7.99943,7.99943,0,0,0,208,136Zm64,96H240V203.31348L243.31372,200H268.686L272,203.31348Zm-8-120a8,8,0,1,1-8-8A8.00917,8.00917,0,0,1,264,112Zm0,72H248V168h16Zm24-16h-8v-8a8.00008,8.00008,0,0,0-8-8h-8V134.62378a24.02584,24.02584,0,0,0,8.16406-4.89978L288,140.28125Zm120-56a8,8,0,1,1-8-8A8.00917,8.00917,0,0,1,408,112ZM384,256h88V416H384Zm88,224H331.544l18-48H472Zm-2.05615-240H384V139.31348l5.65918-5.65894a23.9493,23.9493,0,0,0,26.69531-4.11218l32.61426,19.56848ZM400,83.67969V88a23.84618,23.84618,0,0,0-11.15479,2.75952l-41.96484-35.97a23.871,23.871,0,0,0,4.99707-12.3584ZM328,32a8,8,0,1,1-8,8A8.00917,8.00917,0,0,1,328,32ZM256,83.67969l48.12256-41.24854a23.871,23.871,0,0,0,4.99707,12.3584l-41.96484,35.97A23.84618,23.84618,0,0,0,256,88Zm-32,56.60156L239.83594,129.724A24.02584,24.02584,0,0,0,248,134.62378V152h-8a8.00008,8.00008,0,0,0-8,8v8h-8Z"/><rect x="416" y="384" width="16" height="16"/><rect x="440" y="384" width="16" height="16"/></svg>
