<?xml version="1.0" encoding="UTF-8"?>
<svg xmlns="http://www.w3.org/2000/svg" id="Icons" viewBox="0 0 60 60" width="512" height="512"><path d="M43,24V17.416a5.324,5.324,0,0,0-2.519-4.544l-3.9-2.44A3.34,3.34,0,0,1,35,7.584V6.722A1.993,1.993,0,0,0,36,5V3a3,3,0,0,0-3-3H27a3,3,0,0,0-3,3V5a1.993,1.993,0,0,0,1,1.722v.862a3.341,3.341,0,0,1-1.579,2.849l-3.9,2.438A5.325,5.325,0,0,0,17,17.416V24a1.993,1.993,0,0,0,1,1.722V37.278A1.993,1.993,0,0,0,17,39V56a4,4,0,0,0,4,4H39a4,4,0,0,0,4-4V39a1.993,1.993,0,0,0-1-1.722V25.722A1.993,1.993,0,0,0,43,24ZM26,3a1,1,0,0,1,1-1h6a1,1,0,0,1,1,1l0,2H26ZM19,17.416a3.341,3.341,0,0,1,1.579-2.849l3.9-2.438A5.325,5.325,0,0,0,27,7.584V7h6v.584a5.324,5.324,0,0,0,2.519,4.544l3.9,2.44A3.34,3.34,0,0,1,41,17.416V24H19ZM40,37H20V26H40Zm1,19a2,2,0,0,1-2,2H21a2,2,0,0,1-2-2V39H41Z"/><path d="M22,52a1,1,0,0,0,1-1V43a1,1,0,0,0-2,0v8A1,1,0,0,0,22,52Z"/><path d="M22,17a1,1,0,0,0-1,1v3a1,1,0,0,0,2,0V18A1,1,0,0,0,22,17Z"/></svg>
