<svg id="Layer_6" enable-background="new 0 0 64 64" height="512" viewBox="0 0 64 64" width="512" xmlns="http://www.w3.org/2000/svg"><g><path d="m58.682 7.692-1.414-1.414-5.293 5.293-1.293-1.293-1.414 1.414 2.707 2.707z"/><path d="m17.775 13.585-1.6-1.199-5.308 7.077-1.185-1.185-1.414 1.414 2.815 2.816z"/><path d="m54.975 41.985v-23.059c4.493-.499 8-4.316 8-8.941 0-4.963-4.038-9-9-9-4.624 0-8.442 3.507-8.941 8h-4.059v-1c0-2.757-2.243-5-5-5h-5.184c-.414-1.161-1.514-2-2.816-2h-14c-1.302 0-2.402.839-2.816 2h-5.184c-2.757 0-5 2.243-5 5v44c0 2.757 2.243 5 5 5h25c0 1.654 1.346 3 3 3h1.142c.447 1.721 2 3 3.858 3s3.411-1.279 3.858-3h8.284c.447 1.721 2 3 3.858 3s3.411-1.279 3.858-3h1.142c1.654 0 3-1.346 3-3v-10.333l-3.5-4.667zm-1-39c3.86 0 7 3.141 7 7s-3.14 7-7 7-7-3.141-7-7 3.14-7 7-7zm-13 8h4.059c.463 4.165 3.777 7.478 7.941 7.941v23.059h-2v-4h-10zm4 33v-4h4v14h-16v-14h4v4zm-2-4v2h-4v-2zm-12-35h5c1.654 0 3 1.346 3 3v30h-2v-29c0-1.103-.897-2-2-2h-4zm-18-1c0-.552.449-1 1-1h14c.551 0 1 .448 1 1v4c0 .552-.449 1-1 1h-14c-.551 0-1-.448-1-1zm18 50v1h-25c-1.654 0-3-1.346-3-3v-44c0-1.654 1.346-3 3-3h5v2h-4c-1.103 0-2 .897-2 2v42c0 1.103.897 2 2 2h24zm0-16v13h-24v-42h4.184c.414 1.161 1.514 2 2.816 2h14c1.302 0 2.402-.839 2.816-2h4.184v29zm4.142 20h-1.142c-.551 0-1-.448-1-1v-1h3.382c-.597.522-1.035 1.211-1.24 2zm3.858 3c-1.103 0-2-.897-2-2s.897-2 2-2 2 .897 2 2-.897 2-2 2zm12.142-3h-8.284c-.205-.79-.643-1.479-1.24-2h10.764c-.597.522-1.035 1.211-1.24 2zm3.858 3c-1.103 0-2-.897-2-2s.897-2 2-2 2 .897 2 2-.897 2-2 2zm6-4c0 .552-.449 1-1 1h-1.142c-.205-.79-.643-1.479-1.24-2h3.382zm0-3h-10v-10h7.5l2.5 3.333z"/><path d="m19.975 12.985h13v2h-13z"/><path d="m30.975 16.985h2v2h-2z"/><path d="m19.975 16.985h9v2h-9z"/><path d="m19.975 20.985h13v2h-13z"/><path d="m17.775 25.585-1.6-1.199-5.308 7.077-1.185-1.185-1.414 1.414 2.815 2.816z"/><path d="m19.975 24.985h13v2h-13z"/><path d="m30.975 28.985h2v2h-2z"/><path d="m19.975 28.985h9v2h-9z"/><path d="m19.975 32.985h13v2h-13z"/><path d="m8.975 48.985h12v-10h-12zm2-8h8v6h-8z"/><path d="m22.975 38.985h6v2h-6z"/><path d="m22.975 42.985h6v2h-6z"/><path d="m22.975 46.985h6v2h-6z"/></g></svg>