<svg height="512pt" viewBox="0 0 512 512" width="512pt" xmlns="http://www.w3.org/2000/svg"><path d="m316 226c5.519531 0 10-4.480469 10-10s-4.480469-10-10-10-10 4.480469-10 10 4.480469 10 10 10zm0 0"/><path d="m507.257812 1.492188c-2.949218-1.820313-6.628906-1.984376-9.730468-.4375-49.730469 24.863281-82.300782 74.480468-85.28125 130.089843-37.613282-46.996093-94.96875-75.144531-156.246094-75.144531-41.824219 0-82.289062 13.050781-116 37.078125v-83.078125c0-5.523438-4.476562-10-10-10s-10 4.476562-10 10v116h-40v-116c0-5.523438-4.476562-10-10-10s-10 4.476562-10 10v116h-40v-116c0-5.523438-4.476562-10-10-10s-10 4.476562-10 10v126c0 27.867188 16.371094 51.976562 40 63.230469v282.769531c0 16.542969 13.457031 30 30 30s30-13.457031 30-30v-100.832031c37.609375 46.808593 94.847656 74.832031 156 74.832031 92.285156 0 171.214844-62.90625 193.6875-150h2.3125v176c0 16.542969 13.457031 30 30 30s30-13.457031 30-30c0-11.839844 0-452.910156 0-472 0-3.464844-1.792969-6.683594-4.742188-8.507812zm-427.257812 480.507812c0 5.515625-4.484375 10-10 10s-10-4.484375-10-10v-30h20zm0-50h-20v-226.726562c3.269531.46875 6.605469.726562 10 .726562s6.730469-.257812 10-.726562zm-10-246c-24.144531 0-44.347656-17.214844-48.992188-40.011719h97.984376c-4.644532 22.796875-24.847657 40.011719-48.992188 40.011719zm186 250c-64.359375 0-123.886719-34.503906-156-90.199219v-146.570312c23.628906-11.253907 40-35.363281 40-63.230469v-17.636719c32.414062-27.347656 73.425781-42.363281 116-42.363281 64.347656 0 123.875 34.503906 156 90.191406v129.808594c0 5.523438 4.476562 9.988281 10 9.988281l6.957031.011719c-21.976562 76-92.8125 130-172.957031 130zm236 46c0 5.515625-4.484375 10-10 10s-10-4.484375-10-10v-30h20zm0-50h-20v-126h20zm0-146c-22.390625 0-38.484375 0-60 0 0-22.847656 0-123.632812 0-146.558594 0-45.730468 22.621094-87.34375 60-112.128906zm0 0"/><path d="m256 136c-66.167969 0-120 53.832031-120 120s53.832031 120 120 120 120-53.832031 120-120-53.832031-120-120-120zm0 220c-55.140625 0-100-44.859375-100-100s44.859375-100 100-100 100 44.859375 100 100-44.859375 100-100 100zm0 0"/><path d="m315.992188 254.972656c.007812.34375.007812.683594.007812 1.027344 0 26.320312-17.625 49.96875-42.863281 57.507812-5.289063 1.582032-8.300781 7.152344-6.71875 12.445313 1.585937 5.300781 7.160156 8.296875 12.445312 6.71875 33.640625-10.054687 57.136719-41.582031 57.136719-76.671875 0-.496094 0-.996094-.011719-1.492188-.128906-5.519531-4.703125-9.914062-10.230469-9.765624-5.523437.128906-9.894531 4.707031-9.765624 10.230468zm0 0"/></svg>