<svg id="Capa_1" enable-background="new 0 0 511.49 511.49" height="512" viewBox="0 0 511.49 511.49" width="512" xmlns="http://www.w3.org/2000/svg"><g><g id="Layer_2_19_"><g id="graph_statistics_stats_graphic_bars_business_and_finance_finances_business_19_"><path d="m501.49 481.657h-491.49c-5.523 0-10-4.477-10-10s4.477-10 10-10h491.49c5.523 0 10 4.477 10 10s-4.477 10-10 10z"/><path d="m120.5 481.267h-60.2c-5.523 0-10-4.477-10-10v-120.41c0-5.523 4.477-10 10-10h60.2c5.523 0 10 4.477 10 10v120.41c0 5.523-4.477 10-10 10zm-50.2-20h40.2v-100.41h-40.2z"/><path d="m230.86 481.267h-60.19c-5.523 0-10-4.477-10-10v-200.65c0-5.523 4.477-10 10-10h60.19c5.523 0 10 4.477 10 10v200.65c0 5.523-4.477 10-10 10zm-50.19-20h40.19v-180.65h-40.19z"/><path d="m341.22 481.267h-60.22c-5.523 0-10-4.477-10-10v-180.59c0-5.523 4.477-10 10-10h60.19c5.523 0 10 4.477 10 10v180.59c0 5.512-4.459 9.984-9.97 10zm-50.19-20h40.19v-160.59h-40.22z"/><path d="m451.59 481.267h-60.2c-5.523 0-10-4.477-10-10v-301c0-5.523 4.477-10 10-10h60.2c5.523 0 10 4.477 10 10v301c0 5.523-4.477 10-10 10zm-50.2-20h40.2v-281h-40.2z"/><path d="m50.28 270.577c-5.523.003-10.003-4.471-10.006-9.994-.002-3.086 1.421-6 3.856-7.896l110.38-85.83c4.36-3.391 10.644-2.605 14.035 1.755s2.605 10.644-1.755 14.035l-110.38 85.83c-1.751 1.365-3.909 2.105-6.13 2.1z"/><path d="m301.09 150.187c-.672-.001-1.342-.068-2-.2-5.416-1.081-8.931-6.347-7.85-11.763.559-2.804 2.292-5.234 4.76-6.677l129.83-89.88c4.543-3.143 10.772-2.008 13.915 2.535 3.142 4.543 2.008 10.772-2.535 13.915l-130.42 90.29c-1.674 1.16-3.663 1.781-5.7 1.78z"/><path d="m421.5 110.057c-.672.004-1.342-.063-2-.2-5.414-1.081-8.929-6.345-7.85-11.76l8.07-40.36-40.32-8.07c-5.431-1.005-9.018-6.222-8.013-11.653s6.222-9.018 11.653-8.013c.094.017.187.036.28.056l50.16 10c5.417 1.077 8.935 6.341 7.858 11.758-.003.014-.006.028-.008.042l-10 50.16c-.936 4.684-5.054 8.052-9.83 8.04z"/><path d="m220.78 163.037c-8.44 0-13.72-1-21.68-6.19-4.623-3.038-5.908-9.247-2.87-13.87s9.247-5.908 13.87-2.87c4.24 2.77 5.5 3 11.39 2.92 3.847.049 7.141-2.746 7.72-6.55.76-4.54-2.78-5.8-3.95-6.21-7.6-2.69-15.41-5.78-21-10.16-6.1-4.78-8.91-13-7.33-21.34 1.537-8.816 7.87-16.036 16.41-18.71 15.55-4.69 25 2.48 28.35 5.78 3.867 3.943 3.805 10.275-.139 14.141-3.853 3.779-10.01 3.818-13.911.089-1-1-3.43-2.4-8.53-.86-1.12.392-1.985 1.295-2.33 2.43-.376.887-.426 1.879-.14 2.8 3.37 2.6 9.9 5.09 15.24 7 12.29 4.35 19.12 15.76 17 28.39-2.234 13.355-13.759 23.162-27.3 23.23z"/><path d="m221.51 172.397c-5.523 0-10-4.477-10-10v-9.37c0-5.523 4.477-10 10-10s10 4.477 10 10v9.37c0 5.523-4.477 10-10 10z"/><path d="m221.51 98.597c-5.523 0-10-4.477-10-10v-8.57c0-5.523 4.477-10 10-10s10 4.477 10 10v8.57c0 5.523-4.477 10-10 10z"/><path d="m221.92 212.557c-50.451 0-91.35-40.899-91.35-91.35s40.899-91.35 91.35-91.35 91.35 40.899 91.35 91.35c-.055 50.429-40.922 91.295-91.35 91.35zm0-162.7c-39.406 0-71.35 31.944-71.35 71.35s31.944 71.35 71.35 71.35 71.35-31.944 71.35-71.35c-.044-39.387-31.963-71.306-71.35-71.35z"/></g></g></g></svg>