<?xml version="1.0" encoding="UTF-8"?>
<svg xmlns="http://www.w3.org/2000/svg" id="Economic_Crisis" data-name="Economic Crisis" viewBox="0 0 64 64" width="512" height="512"><path d="M62,37a1,1,0,0,0-1-1V5a3.009,3.009,0,0,0-3-3H6A3.009,3.009,0,0,0,3,5V28.28A2,2,0,0,0,2,30V60a2.006,2.006,0,0,0,2,2H28a2.006,2.006,0,0,0,2-2V46h9a10.976,10.976,0,0,0,4.7,9H41a1,1,0,0,0-1,1v5a1,1,0,0,0,1,1H59a1,1,0,0,0,1-1V56a1,1,0,0,0-1-1H56.3A10.976,10.976,0,0,0,61,46c0-.25-.02-.5-.04-.74A2.984,2.984,0,0,0,62,43ZM5,5A1,1,0,0,1,6,4H58a1,1,0,0,1,1,1V36H57V7a1,1,0,0,0-1-1H8A1,1,0,0,0,7,7V28H5ZM53.92,22.61a.994.994,0,0,0-.68-.58l-7.69-1.92-5.79-6.76a1,1,0,0,0-.72-.35.951.951,0,0,0-.75.29L27.95,23.63l-7.29-6.38a1.009,1.009,0,0,0-1.26-.05L9,25V8H55V25.13ZM55,30.21V36h-.44A10.363,10.363,0,0,0,53,35.43V25.54Zm-4-6.68V35.05c-.33-.03-.66-.05-1-.05s-.67.02-1,.05V23.03Zm-4-1v12.9a10.363,10.363,0,0,0-1.56.57H45V22.03ZM43,20.2V36H41V17.87ZM38,38v2H30V38Zm-5-2V21.41l2-2V36Zm4,0V17.41l1.94-1.94.06.07V36ZM27,25.45V28H25V23.7Zm-4-3.5V28H21V20.2ZM19,20v8H17V21.5Zm-4,3v5H13V24.5Zm-4,3v2H9v-.5ZM28,60H4V30H28Zm1-31.72V25.41l2-2V36H30V30A2,2,0,0,0,29,28.28ZM30,44V42h9a1,1,0,0,0,1-1V38h2.47a10.933,10.933,0,0,0-3.28,6ZM58,57v3H42V57Zm-8-2a9,9,0,1,1,9-9A9.014,9.014,0,0,1,50,55ZM60,41.44A11.136,11.136,0,0,0,57.53,38H60Z"/><path d="M25,31H7a1,1,0,0,0-1,1v5a1,1,0,0,0,1,1H25a1,1,0,0,0,1-1V32A1,1,0,0,0,25,31Zm-1,5H8V33H24Z"/><path d="M11,39H7a1,1,0,0,0-1,1v4a1,1,0,0,0,1,1h4a1,1,0,0,0,1-1V40A1,1,0,0,0,11,39Zm-1,4H8V41h2Z"/><path d="M18,39H14a1,1,0,0,0-1,1v4a1,1,0,0,0,1,1h4a1,1,0,0,0,1-1V40A1,1,0,0,0,18,39Zm-1,4H15V41h2Z"/><path d="M25,39H21a1,1,0,0,0-1,1v4a1,1,0,0,0,1,1h4a1,1,0,0,0,1-1V40A1,1,0,0,0,25,39Zm-1,4H22V41h2Z"/><path d="M11,46H7a1,1,0,0,0-1,1v4a1,1,0,0,0,1,1h4a1,1,0,0,0,1-1V47A1,1,0,0,0,11,46Zm-1,4H8V48h2Z"/><path d="M18,46H14a1,1,0,0,0-1,1v4a1,1,0,0,0,1,1h4a1,1,0,0,0,1-1V47A1,1,0,0,0,18,46Zm-1,4H15V48h2Z"/><path d="M25,46H21a1,1,0,0,0-1,1v4a1,1,0,0,0,1,1h4a1,1,0,0,0,1-1V47A1,1,0,0,0,25,46Zm-1,4H22V48h2Z"/><path d="M11,53H7a1,1,0,0,0-1,1v4a1,1,0,0,0,1,1h4a1,1,0,0,0,1-1V54A1,1,0,0,0,11,53Zm-1,4H8V55h2Z"/><path d="M18,53H14a1,1,0,0,0-1,1v4a1,1,0,0,0,1,1h4a1,1,0,0,0,1-1V54A1,1,0,0,0,18,53Zm-1,4H15V55h2Z"/><path d="M25,53H21a1,1,0,0,0-1,1v4a1,1,0,0,0,1,1h4a1,1,0,0,0,1-1V54A1,1,0,0,0,25,53Zm-1,4H22V55h2Z"/><path d="M53,44V43a1,1,0,0,0-1-1H48a1,1,0,0,0-1,1v1a1,1,0,0,0,1,1h4a3.009,3.009,0,0,1,3,3v1a3.009,3.009,0,0,1-3,3H51v1H49V52H48a3.009,3.009,0,0,1-3-3h2a1,1,0,0,0,1,1h4a1,1,0,0,0,1-1V48a1,1,0,0,0-1-1H48a3.009,3.009,0,0,1-3-3V43a3.009,3.009,0,0,1,3-3h1V39h2v1h1a3.009,3.009,0,0,1,3,3v1Z"/></svg>
