<svg id="Layer_1" enable-background="new 0 0 512 512" height="512" viewBox="0 0 512 512" width="512" xmlns="http://www.w3.org/2000/svg"><g><g><path d="m406.014 503h-20c-7.481 0-13.568-6.087-13.568-13.569 0-7.44-4.829-12.091-9.347-13.963-4.519-1.873-11.223-1.997-16.485 3.264-2.562 2.562-5.97 3.974-9.595 3.974s-7.032-1.412-9.595-3.974l-14.142-14.142c-2.562-2.562-3.974-5.97-3.974-9.595s1.411-7.032 3.974-9.595c5.262-5.262 5.136-11.965 3.265-16.484-1.872-4.519-6.523-9.348-13.964-9.348-7.481 0-13.568-6.087-13.568-13.569v-19.999c0-7.482 6.087-13.569 13.568-13.569 7.44 0 12.092-4.829 13.963-9.348 1.872-4.519 1.998-11.223-3.264-16.484-5.291-5.291-5.291-13.899 0-19.189l14.142-14.142c2.562-2.562 5.97-3.974 9.595-3.974s7.033 1.412 9.595 3.975c5.262 5.261 11.964 5.135 16.484 3.264 4.519-1.872 9.348-6.523 9.348-13.964 0-7.482 6.086-13.569 13.568-13.569h20c7.481 0 13.568 6.087 13.568 13.569 0 7.441 4.829 12.092 9.348 13.964 4.52 1.872 11.223 1.998 16.484-3.264 2.562-2.562 5.97-3.974 9.595-3.974s7.032 1.412 9.595 3.975l14.142 14.142c2.563 2.562 3.975 5.97 3.975 9.595s-1.412 7.033-3.975 9.595c-5.261 5.261-5.135 11.964-3.263 16.483s6.523 9.348 13.964 9.348c7.482 0 13.569 6.087 13.569 13.569v19.998c0 7.482-6.087 13.569-13.569 13.569-7.441 0-12.092 4.829-13.964 9.348s-1.998 11.222 3.264 16.483c2.563 2.563 3.975 5.971 3.975 9.595 0 3.625-1.412 7.033-3.976 9.596l-14.141 14.141c-2.562 2.562-5.969 3.974-9.594 3.974s-7.032-1.412-9.595-3.974c-5.27-5.271-11.974-5.15-16.491-3.28-4.516 1.87-9.341 6.525-9.341 13.979-.001 7.482-6.088 13.569-13.57 13.569zm-19.57-14h19.142c.163-11.822 7.021-21.943 17.981-26.482 10.959-4.539 22.966-2.232 31.44 6.012l13.537-13.537c-8.237-8.466-10.538-20.469-5.997-31.434 4.541-10.963 14.657-17.824 26.467-17.987v-19.143c-11.81-.164-21.926-7.024-26.467-17.987s-2.239-22.968 5.996-31.434l-13.537-13.537c-8.467 8.236-20.471 10.537-31.434 5.997-10.963-4.542-17.824-14.657-17.987-26.467h-19.142c-.164 11.81-7.024 21.926-17.987 26.467-10.963 4.542-22.967 2.24-31.435-5.996l-13.537 13.537c8.235 8.467 10.537 20.471 5.996 31.435-4.541 10.963-14.656 17.823-26.466 17.987v19.143c11.81.164 21.925 7.024 26.466 17.987 4.542 10.964 2.24 22.967-5.997 31.434l13.537 13.537c8.468-8.236 20.471-10.537 31.436-5.996 10.964 4.539 17.825 14.654 17.988 26.464zm9.571-37.132c-30.806 0-55.869-25.062-55.869-55.868s25.062-55.868 55.869-55.868c30.806 0 55.868 25.062 55.868 55.868s-25.062 55.868-55.868 55.868zm0-97.736c-23.086 0-41.869 18.782-41.869 41.868s18.782 41.868 41.869 41.868c23.086 0 41.868-18.782 41.868-41.868s-18.782-41.868-41.868-41.868z"/></g><g><path clip-rule="evenodd" d="m98.806 487.36c0 4.772-3.868 8.64-8.639 8.64-4.772 0-8.64-3.868-8.64-8.64 0-4.771 3.868-8.64 8.64-8.64 4.771 0 8.639 3.869 8.639 8.64z" fill-rule="evenodd"/></g><g><path clip-rule="evenodd" d="m186.28 487.36c0 4.772-3.868 8.64-8.64 8.64-4.771 0-8.64-3.868-8.64-8.64 0-4.771 3.868-8.64 8.64-8.64s8.64 3.869 8.64 8.64z" fill-rule="evenodd"/></g><g><path d="m198.032 476.046h-109.672c-21.689 0-35.553-14.446-38.037-39.633-2.857-28.962-9.915-98.421-13.722-117.827-3.365-17.143-16.752-15.872-19.403-15.443-3.803.688-7.415-1.847-8.101-5.652-.686-3.804 1.872-7.45 5.676-8.136 10.146-1.829 30.626 1.365 35.565 26.535 3.924 19.998 11.04 89.986 13.917 119.148 2.664 27.007 18.802 27.007 24.105 27.007h109.672c3.866 0 7 3.134 7 7s-3.134 7.001-7 7.001z"/></g><g><path d="m189.844 425.905h-131.168v-14h131.168c3.876 0 6.326-2.441 7.279-7.254.056-.279.128-.555.217-.825l16.114-49.032c.091-.965-.024-2.177-.856-3.157-.963-1.136-2.749-1.761-5.027-1.761h-160.246v-14h160.246c6.458 0 12.035 2.381 15.703 6.704 3.406 4.015 4.841 9.458 3.936 14.935-.058.354-.144.704-.256 1.045l-16.188 49.258c-2.385 11.169-10.366 18.087-20.922 18.087z"/></g><g><path d="m162.57 419.818-13.88-1.826 10-76.031 13.88 1.826zm-57.334 0-10-76.031 13.88-1.826 10 76.031z"/></g><g><path d="m50.272 374.192h161.875v14h-161.875z"/></g><g><path d="m392.375 278.758h-32.005c-3.866 0-7-3.134-7-7s3.134-7 7-7h15.105l-30.358-30.358c-2.734-2.734-2.734-7.166 0-9.899 2.733-2.733 7.166-2.733 9.899 0l30.358 30.358v-15.105c0-3.866 3.134-7 7-7s7 3.134 7 7v32.004c.001 3.866-3.133 7-6.999 7zm-240.716 0h-32.004c-3.866 0-7-3.134-7-7v-32.004c0-3.866 3.134-7 7-7s7 3.134 7 7v15.105l30.358-30.358c2.733-2.733 7.166-2.733 9.899 0 2.734 2.733 2.734 7.166 0 9.899l-30.358 30.358h15.105c3.866 0 7 3.134 7 7s-3.134 7-7 7z"/></g><g><path d="m219.329 171.884h-14v-148.884h-34.679v148.883h-14v-151.277c0-6.399 5.207-11.606 11.607-11.606h39.467c6.399 0 11.606 5.207 11.606 11.606v151.278z"/></g><g><path d="m163.65 37.475h48.679v14h-48.679z"/></g><g><path d="m287.354 177.769h-14v-97.164l-59.195 16.034-3.66-13.513 68.025-18.425c2.104-.57 4.353-.127 6.084 1.197s2.746 3.379 2.746 5.559z"/></g><g><path d="m355.379 177.769h-14v-97.164l-59.195 16.034-3.66-13.513 68.025-18.425c2.104-.57 4.353-.127 6.084 1.197s2.746 3.379 2.746 5.559z"/></g><g><path d="m256.128 138.968h-19.573c-4.875 0-8.842-3.967-8.842-8.842v-19.573c0-4.875 3.967-8.842 8.842-8.842h19.573c4.876 0 8.843 3.967 8.843 8.842v19.573c0 4.875-3.967 8.842-8.843 8.842zm-14.415-14h9.258v-9.258h-9.258z"/></g><g><path d="m324.154 138.968h-19.574c-4.876 0-8.843-3.967-8.843-8.842v-19.573c0-4.875 3.967-8.842 8.843-8.842h19.573c4.875 0 8.842 3.967 8.842 8.842v19.573c.001 4.875-3.966 8.842-8.841 8.842zm-14.416-14h9.258v-9.258h-9.258z"/></g><g><path d="m368.115 208.888h-224.2c-6.399 0-11.606-5.207-11.606-11.606v-20.792c0-6.4 5.207-11.606 11.606-11.606h224.2c6.399 0 11.606 5.207 11.606 11.606v20.792c0 6.399-5.207 11.606-11.606 11.606zm-221.806-14h219.412v-16.004h-219.412z"/></g></g></svg>